<svg width="27" height="18" viewBox="0 0 27 18" fill="none" xmlns="http://www.w3.org/2000/svg">
<path d="M4.00391 0.820312V7.13672C5.06641 5.89453 6.33594 5.27344 7.8125 5.27344C8.57031 5.27344 9.25391 5.41406 9.86328 5.69531C10.4727 5.97656 10.9297 6.33594 11.2344 6.77344C11.5469 7.21094 11.7578 7.69531 11.8672 8.22656C11.9844 8.75781 12.043 9.58203 12.043 10.6992V18H8.75V11.4258C8.75 10.1211 8.6875 9.29297 8.5625 8.94141C8.4375 8.58984 8.21484 8.3125 7.89453 8.10938C7.58203 7.89844 7.1875 7.79297 6.71094 7.79297C6.16406 7.79297 5.67578 7.92578 5.24609 8.19141C4.81641 8.45703 4.5 8.85938 4.29688 9.39844C4.10156 9.92969 4.00391 10.7188 4.00391 11.7656V18H0.710938V0.820312H4.00391ZM18.6758 0.820312V7.13672C19.7383 5.89453 21.0078 5.27344 22.4844 5.27344C23.2422 5.27344 23.9258 5.41406 24.5352 5.69531C25.1445 5.97656 25.6016 6.33594 25.9062 6.77344C26.2188 7.21094 26.4297 7.69531 26.5391 8.22656C26.6562 8.75781 26.7148 9.58203 26.7148 10.6992V18H23.4219V11.4258C23.4219 10.1211 23.3594 9.29297 23.2344 8.94141C23.1094 8.58984 22.8867 8.3125 22.5664 8.10938C22.2539 7.89844 21.8594 7.79297 21.3828 7.79297C20.8359 7.79297 20.3477 7.92578 19.918 8.19141C19.4883 8.45703 19.1719 8.85938 18.9688 9.39844C18.7734 9.92969 18.6758 10.7188 18.6758 11.7656V18H15.3828V0.820312H18.6758Z" fill="white"/>
</svg>
