<svg width="1023" height="955" viewBox="0 0 1023 955" fill="none" xmlns="http://www.w3.org/2000/svg">
<path d="M897.662 312.59C909.35 348.781 906.404 395.643 893.102 446.359C879.803 497.063 856.167 551.561 826.545 602.989C796.924 654.417 761.325 702.76 724.109 741.157C686.885 779.561 648.079 807.979 612.05 819.615C539.868 842.926 433.259 845.792 338.832 824.672C244.37 803.544 162.324 758.467 138.95 686.092C127.278 649.95 137.288 597.751 161.251 538.947C185.201 480.174 223.043 414.918 266.877 352.73C310.709 290.543 360.521 231.44 408.4 184.972C456.296 138.488 502.205 104.699 538.231 93.0648C610.332 69.7795 688.461 88.3606 754.453 130.941C820.445 173.521 874.24 240.065 897.662 312.59Z" stroke="#FFA800"/>
<path d="M916.41 439.48C939.88 512.152 943.815 583.575 923.934 642.612C904.061 701.627 860.377 748.31 788.496 771.524C752.584 783.122 695.792 784.753 630.014 778.371C564.255 771.991 489.578 757.608 417.931 737.227C346.282 716.845 277.683 690.47 224.071 660.112C170.43 629.737 131.905 595.438 120.221 559.26C96.794 486.719 121.06 393.86 169.252 313.267C217.441 232.681 289.462 164.513 361.335 141.301C397.212 129.714 446.901 133.434 502.051 147.864C557.184 162.29 617.703 187.401 675.199 218.514C732.694 249.627 787.15 286.734 830.161 325.142C873.184 363.561 904.705 403.237 916.41 439.48Z" stroke="#FFA800"/>
</svg>
