<svg width="838" height="840" viewBox="0 0 838 840" fill="none" xmlns="http://www.w3.org/2000/svg">
<path d="M532.832 589.129L522.278 598.887C513.556 606.95 506.566 616.704 501.736 627.556L495.945 640.566C482.651 670.433 453.654 690.254 420.998 691.795L407.351 692.439C395.399 693.003 383.69 696.013 372.947 701.282L360.842 707.218C331.325 721.695 296.154 718.187 270.077 698.167L259.543 690.079C250.028 682.774 239.113 677.503 227.475 674.595L214.522 671.357C182.698 663.403 158.111 638.132 151.033 606.102L148.043 592.566C145.471 580.928 140.549 569.938 133.578 560.27L125.352 548.861C106.289 522.422 103.706 487.512 118.672 458.555L125.304 445.725C130.75 435.187 133.997 423.652 134.847 411.821L135.882 397.415C138.218 364.904 158.632 336.466 188.687 323.853L201.657 318.41C212.647 313.798 222.579 306.989 230.844 298.401L240.456 288.413C263.203 264.778 297.362 256.042 328.662 265.857L341.402 269.851C352.849 273.44 364.911 274.637 376.839 273.368L390.045 271.963C422.736 268.484 454.573 283.839 472.205 311.586L479.435 322.965C485.853 333.064 494.273 341.74 504.176 348.456L515.483 356.124C542.54 374.473 556.94 406.509 552.703 438.926L550.857 453.047C549.318 464.825 550.192 476.793 553.428 488.221L557.343 502.051C566.211 533.377 556.738 567.029 532.832 589.129Z" stroke="#C9F600"/>
<path d="M616.47 578.04L595.453 597.47C586.731 605.533 579.742 615.287 574.912 626.139L563.318 652.186C550.023 682.053 521.026 701.874 488.371 703.415L460.543 704.728C448.591 705.293 436.882 708.302 426.139 713.571L401.263 725.771C371.746 740.247 336.575 736.74 310.498 716.719L288.702 699.985C279.187 692.68 268.271 687.409 256.633 684.501L229.916 677.823C198.091 669.869 173.505 644.598 166.427 612.567L160.361 585.115C157.79 573.477 152.868 562.487 145.897 552.819L129.354 529.876C110.291 503.436 107.709 468.526 122.675 439.57L135.857 414.064C141.304 403.526 144.55 391.991 145.401 380.16L147.458 351.522C149.794 319.011 170.208 290.573 200.263 277.96L226.345 267.015C237.335 262.403 247.268 255.594 255.532 247.006L275.028 226.749C297.774 203.113 331.933 194.378 363.233 204.192L389.511 212.431C400.958 216.02 413.02 217.217 424.948 215.948L452.273 213.041C484.965 209.562 516.802 224.916 534.433 252.664L549.293 276.049C555.71 286.148 564.13 294.824 574.033 301.539L597.089 317.176C624.146 335.525 638.547 367.561 634.309 399.977L630.614 428.248C629.074 440.026 629.949 451.994 633.184 463.423L640.981 490.962C649.849 522.288 640.376 555.94 616.47 578.04Z" stroke="#C9F600"/>
<path d="M705.277 547.662L670.327 579.972C661.605 588.035 654.616 597.789 649.786 608.641L630.464 652.049C617.17 681.916 588.173 701.737 555.517 703.278L508.807 705.482C496.855 706.047 485.145 709.056 474.403 714.325L432.519 734.866C403.002 749.343 367.83 745.835 341.754 725.815L304.959 697.566C295.444 690.261 284.529 684.99 272.891 682.081L227.844 670.822C196.019 662.868 171.433 637.597 164.355 605.567L154.194 559.581C151.623 547.943 146.701 536.953 139.73 527.285L112.112 488.982C93.0487 462.542 90.4665 427.632 105.432 398.676L127.339 356.291C132.786 345.753 136.032 334.218 136.883 322.386L140.302 274.797C142.638 242.286 163.051 213.848 193.107 201.235L236.65 182.962C247.64 178.349 257.573 171.541 265.837 162.953L298.494 129.02C321.24 105.384 355.399 96.6486 386.7 106.463L431.006 120.355C442.452 123.944 454.514 125.141 466.443 123.872L512.57 118.964C545.261 115.485 577.099 130.84 594.73 158.587L619.749 197.961C626.166 208.06 634.586 216.735 644.489 223.451L683.191 249.698C710.248 268.047 724.649 300.083 720.411 332.499L714.253 379.612C712.713 391.39 713.588 403.358 716.823 414.787L729.788 460.584C738.656 491.91 729.183 525.561 705.277 547.662Z" stroke="#C9F600"/>
</svg>
