<svg width="1266" height="1260" viewBox="0 0 1266 1260" fill="none" xmlns="http://www.w3.org/2000/svg">
<path d="M1025.36 394.564L1035.4 500.802C1036.62 513.779 1034.9 526.865 1030.36 539.082L993.167 639.103C981.602 670.208 953.262 691.954 920.224 695.075L813.985 705.109C801.009 706.335 787.923 704.612 775.706 700.07L675.684 662.88C644.58 651.315 622.833 622.975 619.713 589.937L609.679 483.698C608.453 470.722 610.176 457.636 614.718 445.419L651.907 345.398C663.472 314.293 691.813 292.547 724.85 289.426L831.089 279.392C844.066 278.166 857.151 279.889 869.368 284.431L969.39 321.621C1000.49 333.186 1022.24 361.526 1025.36 394.564Z" stroke="#C9F600"/>
<path d="M1000.94 405.253L1015.59 560.366C1016.81 573.342 1015.09 586.428 1010.55 598.645L956.251 744.68C944.686 775.784 916.346 797.531 883.308 800.651L728.196 815.302C715.219 816.528 702.134 814.805 689.917 810.262L543.881 755.965C512.777 744.4 491.031 716.06 487.91 683.022L473.259 527.909C472.034 514.933 473.757 501.847 478.299 489.63L532.597 343.595C544.162 312.491 572.502 290.744 605.54 287.624L760.652 272.973C773.628 271.747 786.714 273.47 798.931 278.013L944.966 332.31C976.071 343.875 997.817 372.215 1000.94 405.253Z" stroke="#C9F600"/>
<path d="M1000.22 407.287L1015.54 603.22C1016.56 616.207 1014.63 629.256 1009.9 641.393L935.544 832.061C923.847 862.059 896.456 883.076 864.453 886.612L661.038 909.083C648.09 910.513 634.985 909 622.704 904.657L437.414 839.139C405.178 827.741 382.681 798.422 380.014 764.334L364.685 568.401C363.669 555.414 365.599 542.364 370.332 530.228L444.685 339.56C456.383 309.562 483.774 288.544 515.777 285.009L719.192 262.538C732.14 261.108 745.244 262.621 757.526 266.964L942.815 332.482C975.052 343.88 997.548 373.198 1000.22 407.287Z" stroke="#C9F600"/>
<path d="M1000.22 407.287L1019.53 654.197C1020.55 667.184 1018.62 680.233 1013.89 692.37L920.667 931.417C908.969 961.415 881.578 982.433 849.575 985.968L594.546 1014.14C581.598 1015.57 568.494 1014.06 556.212 1009.72L322.715 927.151C290.479 915.752 267.982 886.434 265.315 852.346L245.998 605.436C244.982 592.449 246.912 579.399 251.645 567.263L344.864 328.215C356.562 298.218 383.952 277.2 415.955 273.665L670.984 245.492C683.932 244.062 697.037 245.575 709.318 249.917L942.816 332.482C975.052 343.88 997.549 373.198 1000.22 407.287Z" stroke="#C9F600"/>
</svg>
