<svg width="765" height="560" viewBox="0 0 765 560" fill="none" xmlns="http://www.w3.org/2000/svg">
<path d="M89.0889 16.1015L593.263 212.883C602.604 216.529 609.821 224.169 612.931 233.702L678.739 435.452C686.687 459.82 665.44 483.724 640.308 478.688L31.5427 356.705C14.1467 353.219 2.48504 336.775 4.94908 319.206L43.7332 42.6561C46.7367 21.2399 68.9432 8.23849 89.0889 16.1015Z" stroke="#1F90EE"/>
<path d="M126.156 47.6498L630.33 244.432C639.672 248.078 646.889 255.717 649.999 265.25L715.806 467.001C723.754 491.369 702.508 515.272 677.376 510.236L68.61 388.254C51.2141 384.768 39.5524 368.324 42.0165 350.754L80.8006 74.2045C83.8041 52.7882 106.011 39.7868 126.156 47.6498Z" stroke="#1F90EE"/>
<path d="M156.833 84.9927L661.007 281.775C670.349 285.421 677.566 293.06 680.675 302.593L746.483 504.344C754.431 528.712 733.185 552.615 708.052 547.579L99.2868 425.596C81.8908 422.111 70.2292 405.667 72.6932 388.097L111.477 111.547C114.481 90.1311 136.687 77.1297 156.833 84.9927Z" stroke="#1F90EE"/>
</svg>
